This is a stereoscopic 3D rip of the IMAX documentary The Ultimate Wave: Tahiti, for new 3D TVs or computers with Nvidia 3D Vision. Tested with Stereoscopic Player. Enjoy!

Title: The Ultimate Wave: Tahiti (2010)
Rated: Not Rated
Runtime: 45 minutes
Genre: Documentary

Description:
THE ULTIMATE WAVE TAHITI plunges audiences into the stunning beauty of an island paradise on a quest to find the perfect wave-riding experience. Nine-time world surfing champion Kelly Slater and Tahitian surfer Raimana Van Bastolaer and a group of friends seek out the best waves breaking on the reef at Tahiti's famed surf site Teahupo'o. As their quest unfolds, the audience is plunged beneath the surface of things, to explore the hidden forces at work shaping ocean waves and the islands that lie in their path. Amidst playful surfing action, we navigate the cosmos and an ocean storm in a search for the source and nature of a wave's energy. Exploring mountainous Tahiti, we are thrust into the turbulent volcanic past of the island and its neighbors and discover the seagoing, wave-riding roots of the islanders themselves -- a culture still rich in the music, dance and lore of the sea. Beneath the ocean...
-From IMDB Page: http://www.imdb.com/title/tt1646232/

General
Unique ID : 216707654904081751771004599331026819698 (0xA308604D0E2879A9BFB37A6B1E9ADA72)
Complete name : [filepath]\IMAX The Ultimate Wave - Tahiti 3D.mkv
Format : Matroska
File size : 7.45 GiB
Duration : 45mn 53s
Overall bit rate : 23.2 Mbps
Encoded date : UTC 2011-02-17 23:32:52
Writing application : mkvmerge v4.4.0 ('Die Wiederkehr') gebaut am Oct 31 2010 21:52:48
Writing library : libebml v1.0.0 + libmatroska v1.0.0

Video
ID : 1
Format : AVC
Format/Info : Advanced Video Codec
Format profile : High@L4.1
Format settings, CABAC : Yes
Format settings, ReFrames : 4 frames
Codec ID : V_MPEG4/ISO/AVC
Duration : 45mn 53s
Bit rate : 19.7 Mbps
Width : 1 920 pixels
Height : 1 080 pixels
Display aspect ratio : 16:9
Frame rate : 23.976 fps
Color space : YUV
Chroma subsampling : 4:2:0
Bit depth : 8 bits
Scan type : Progressive
Bits/(Pixel*Frame) : 0.397
Stream size : 6.33 GiB (85%)
Title : made by z-man
Writing library : x264 core 114 r1900 60ef1f8

Audio #1
ID : 2
Format : DTS
Format/Info : Digital Theater Systems
Codec ID : A_DTS
Duration : 45mn 53s
Bit rate mode : Constant
Bit rate : 1 510 Kbps
Channel(s) : 6 channels
Channel positions : Front: L C R, Side: L R, LFE
Sampling rate : 48.0 KHz
Bit depth : 24 bits
Compression mode : Lossy
Stream size : 495 MiB (6%)
Language : English

Audio #2
ID : 3
Format : DTS
Format/Info : Digital Theater Systems
Codec ID : A_DTS
Duration : 45mn 53s
Bit rate mode : Constant
Bit rate : 1 510 Kbps
Channel(s) : 6 channels
Channel positions : Front: L C R, Side: L R, LFE
Sampling rate : 48.0 KHz
Bit depth : 24 bits
Compression mode : Lossy
Stream size : 495 MiB (6%)
Language : German